<svg width="512" height="512" viewBox="0 0 512 512" fill="none" xmlns="http://www.w3.org/2000/svg">
<g clip-path="url(#clip0_209_2)">
<mask id="mask0_209_2" style="mask-type:luminance" maskUnits="userSpaceOnUse" x="0" y="0" width="512" height="512">
<path d="M256 512C397.385 512 512 397.385 512 256C512 114.615 397.385 0 256 0C114.615 0 0 114.615 0 256C0 397.385 114.615 512 256 512Z" fill="white"/>
</mask>
<g mask="url(#mask0_209_2)">
<path d="M0 0H512V512H0V0Z" fill="#496E2D"/>
<path d="M105.19 202.434C115.511 203.414 109.812 184.977 113.552 181.629C114.254 179.98 115.56 179.963 115.658 182.054V197.698C115.56 202.793 118.908 204.279 121.504 205.341C124.215 205.128 126.012 205.226 127.073 207.855L128.347 234.931C128.347 234.931 134.618 236.727 134.912 219.695C135.222 209.701 132.919 201.34 134.275 199.396C134.324 197.486 136.757 197.371 138.455 198.302C141.15 200.197 142.358 202.548 146.539 201.617C152.924 199.87 156.745 196.767 156.843 191.868C156.468 187.214 155.945 182.56 153.936 177.906C154.214 177.056 152.712 174.868 152.989 174.019C154.132 175.815 155.88 175.668 156.272 174.019C155.194 170.443 153.512 167.013 150.768 165.527C148.515 163.535 145.216 163.943 144.008 168.091C143.452 172.86 145.739 178.543 149.201 183.164C149.936 184.977 150.981 187.981 150.523 190.692C148.678 191.737 146.816 191.313 145.281 189.68C145.281 189.68 140.203 185.875 140.203 185.026C141.558 176.403 140.513 175.423 139.762 173.039C139.239 169.741 137.671 168.679 136.398 166.425C135.124 165.086 133.409 165.086 132.593 166.425C130.339 170.312 131.384 178.673 133.017 182.413C134.177 185.842 135.973 188.014 135.124 188.014C134.422 189.957 132.985 189.5 131.94 187.263C130.437 182.625 130.143 175.717 130.143 172.598C129.686 168.744 129.196 160.498 126.665 158.407C125.113 156.301 122.811 157.313 122.011 159.256C121.847 163.078 121.815 166.915 122.256 170.459C123.987 176.648 124.542 182.103 125.391 188.455C125.62 196.963 120.476 192.146 120.704 187.932C121.896 182.462 121.586 173.839 120.525 171.651C119.692 169.479 118.696 168.924 116.671 169.283C115.07 169.153 110.922 173.692 109.747 181.204C109.747 181.204 108.75 185.075 108.326 188.52C107.754 192.407 105.207 195.15 103.41 187.981C101.859 182.772 100.912 169.92 98.3154 172.925C97.5642 182.968 96.6661 200.637 105.19 202.434Z" fill="white"/>
<path d="M120.721 209.766C112.229 209.929 99.8014 220.92 99.4585 227.011C108.408 222.7 117.21 218.552 126.322 214.11C124.852 211.905 126.24 209.929 120.721 209.766Z" fill="white"/>
<path d="M167.539 242.704C171.475 229.591 166.903 219.923 169.042 219.972C173.565 224.855 179.901 220.626 181.29 218.927C181.894 218.078 183.38 217.523 184.425 218.633C187.969 221.181 194.207 219.972 195.497 215.498C196.313 211.004 196.815 206.458 196.999 201.895C194.109 202.793 191.953 203.397 191.757 204.589L191.153 208.476C190.908 209.733 188.41 209.782 188.312 208.182C187.217 203.201 182.678 202.548 179.934 210.272C178.089 211.775 174.757 212.068 174.398 209.831C174.839 204.655 172.749 203.952 168.568 206.386C167.229 196.114 165.874 186.299 164.535 176.027C166.282 175.978 167.882 177.269 169.466 175.276C167.719 169.838 164.028 158.734 161.987 157.934C160.991 156.725 160.142 157.476 158.852 157.787C156.663 158.489 154.622 160.383 155.259 164.057C157.856 179.816 159.554 191.819 162.134 207.578C162.526 209.423 160.991 211.856 158.999 211.611C155.618 209.325 154.769 204.687 148.988 204.883C144.791 204.932 140.007 209.472 139.419 213.865C138.716 217.343 138.472 221.132 139.419 224.186C142.358 227.713 145.902 227.37 148.988 226.57C151.519 225.525 153.626 222.977 154.508 223.581C155.112 224.316 154.655 232.694 142.554 239.128C135.222 242.41 129.392 243.161 126.256 237.184C124.313 233.445 126.403 219.237 121.619 222.536C107.46 259.034 154.769 264.097 160.06 224.039C160.566 222.389 162.559 220.74 162.902 223.434C161.808 259.72 126.305 262.219 120.28 250.804C118.777 248.109 118.336 242.133 118.189 238.54C117.291 231.404 113.551 234.147 112.964 241.218C112.359 245.154 112.523 246.264 112.523 250.036C114.401 278.696 160.126 266.383 167.539 242.704ZM149.903 217.915C149.609 218.47 148.319 218.241 147.372 218.241C146.294 218.192 145.787 218.013 145.134 217.147C144.84 216.167 145.755 215.237 146.163 214.502C146.669 213.636 149.396 212.738 150.36 215.155C150.538 215.614 150.59 216.112 150.51 216.597C150.429 217.083 150.219 217.538 149.903 217.915Z" fill="white"/>
<path d="M181.665 185.434C184.507 184.389 197.979 168.989 197.979 168.989C197.277 168.385 196.656 167.944 195.954 167.34C195.203 166.687 195.285 166.033 195.954 165.396C199.286 163.453 198.224 159.191 196.477 157.248C195.347 156.693 194.103 156.41 192.844 156.422C191.585 156.433 190.346 156.738 189.226 157.313C186.891 159.55 186.336 163.143 188.181 165.396C189.977 166.246 191.774 168.058 190.582 169.054C185.078 174.933 169.989 185.075 171.736 185.434C172.112 185.924 181.371 185.907 181.665 185.434ZM191.643 161.249C192.509 161.036 193.619 161.804 194.142 162.947C194.664 164.09 194.387 165.184 193.537 165.396H193.505C192.656 165.609 191.545 164.841 191.023 163.698C190.516 162.539 190.794 161.461 191.643 161.249ZM104.26 254.821C102.039 259.345 101.108 256.242 100.912 253.711C100.657 249.46 100.87 245.194 101.549 240.989C102.104 237.397 101.549 238.491 100.406 239.944C95.3596 247.979 94.9187 259.998 97.7112 263.574C99.1809 265.273 101.614 266.024 103.427 265.469C106.595 264.097 107.983 257.663 107.232 255.327C106.154 253.678 105.321 253.417 104.26 254.821ZM270.518 169.773C276.332 177.579 281.852 185.532 287.257 193.632C288.318 200.654 289.086 207.512 289.543 214.322C290.441 227.452 290.703 241.659 289.886 255.491C292.336 255.589 296.304 251.506 297.676 245.546C298.574 237.299 297.349 222.618 297.267 217.751C297.159 214.701 297.012 211.653 296.827 208.606C303.261 219.123 309.532 230.13 315.655 242.361C317.893 241.316 317.403 228.807 316.096 227.043C311.197 216.543 304.453 206.157 302.297 202.172C301.497 200.703 298.77 196.522 295.52 191.737C295.241 187.918 294.783 184.115 294.148 180.339C293.136 173.349 297.039 181.106 296.5 177.04C295.243 170.051 291.356 165.331 286.816 158.93C285.346 156.856 285.395 156.431 283.125 159.436C282.323 161.236 281.954 163.199 282.048 165.168C281.339 164.126 280.581 163.118 279.778 162.147C277.313 160.02 274.836 157.908 272.347 155.811C270.698 154.635 266.681 152.512 265.962 156.039C265.628 158.512 265.75 161.025 266.322 163.453C266.746 165.201 269.277 168.107 270.518 169.773ZM282.603 169.381C282.913 170.737 283.24 172.092 283.452 173.48L283.697 174.803C283.012 173.845 282.299 172.909 281.558 171.994C278.88 168.826 281.1 169.512 282.603 169.381Z" fill="white"/>
<path d="M317.484 245.595C311.801 251.523 303.604 258.822 294.687 262.203C293.724 263.28 297.071 267.902 301.383 267.902C308.617 267.053 314.986 262.986 320.881 252.29C322.465 249.808 325.241 244.468 325.307 240.32C325.845 216.053 324.098 197.159 320.456 179.62C320.213 178.213 320.28 176.769 320.652 175.391C321.11 174.835 322.71 175.391 323.559 174.019C324.784 172.745 320.277 162.294 317.697 158.276C316.782 156.48 316.472 155.272 314.953 158.489C313.353 161.102 312.291 165.658 312.422 169.904C315.868 193.795 316.929 214.714 319.183 238.605C319.362 240.908 319.019 244.272 317.484 245.595ZM412.69 185.009C412.445 183.311 411.694 179.359 411.988 178.853C412.445 177.644 414.813 178.983 415.662 177.595C416.903 176.338 409.555 166.899 406.991 162.882C406.06 161.085 405.75 159.877 404.231 163.094C402.631 165.707 402.075 170.394 402.712 174.509C406.55 200.458 409.408 219.956 409.995 242.965C409.653 245.154 409.587 246.329 408.558 249.073C406.289 251.98 403.79 255.605 401.422 257.369C399.071 259.116 394.057 260.798 392.408 262.088C387.231 265.109 387.215 268.555 391.428 268.669C398.646 267.82 407.203 267.232 413.098 258.316C414.682 255.834 416.56 249.089 416.642 244.941C417.181 220.675 416.332 202.548 412.69 185.009ZM357.967 205.21C358.032 201.878 358.343 197.469 358.522 194.709C358.604 193.681 358.849 192.521 359.829 192.26C360.825 191.999 362.589 193.272 362.605 192.195C362.409 190.088 361.984 186.952 360.792 185.466C359.159 183.05 354.832 183.637 354.064 187.426C354.081 188.83 354.717 189.582 354.603 190.855C354.407 191.574 353.656 192.064 351.876 191.215C352.17 190.953 350.717 188.945 350.717 188.945C349.328 188.096 347.467 188.994 346.275 189.761C345.843 190.585 345.586 191.488 345.518 192.415C345.451 193.342 345.575 194.273 345.883 195.15C347.842 198.857 354.685 205.144 357.967 205.21Z" fill="white"/>
<path d="M355.665 176.812C360.449 182.674 365.332 188.618 370.248 194.661C371.309 208.149 371.587 219.189 372.632 232.677C372.485 238.393 370.721 243.374 369.039 244.092C369.039 244.092 366.508 245.562 364.81 243.945C363.568 243.439 358.62 235.699 358.62 235.699C356.089 233.38 354.423 234.033 352.627 235.699C347.663 240.483 345.425 249.465 342.061 255.638C341.18 257.026 338.73 258.202 336.003 255.54C329.095 246.085 333.145 232.645 332.296 236.107C326.139 243.047 328.85 254.527 330.238 257.01C332.263 261.06 333.913 263.672 337.865 265.681C341.457 268.327 344.266 266.661 345.801 264.816C349.426 261.043 349.475 251.49 351.174 249.563C352.35 246.085 355.371 246.673 356.824 248.224C358.155 250.102 359.92 251.632 361.968 252.682C365.348 255.671 369.382 256.209 373.35 253.482C376.061 251.964 377.841 249.988 379.425 246.085C381.189 241.382 380.225 219.76 379.866 206.794C382.397 210.06 384.863 213.473 387.362 216.886C388.456 227.713 389.076 238.491 388.717 249.498C388.456 251.702 396.392 242.966 396.327 238.818C396.294 235.47 396.327 232.433 396.327 229.575C400.148 235.323 403.872 241.251 407.366 247.522C409.555 246.379 408.836 234.049 407.448 232.351C403.414 225.59 398.042 218.552 394.335 213.522C394.09 212.885 393.959 212.167 393.665 211.562C392.179 208.117 393.11 205.341 392.408 201.683C391.722 198.008 391.901 192.521 390.84 188.161C390.546 186.463 389.664 181.008 389.926 180.502C390.35 179.277 391.983 180.535 392.783 179.13C393.975 177.824 388.652 164.025 385.941 160.073C384.961 158.309 383.197 158.914 381.009 161.788C379.001 163.682 379.752 167.993 380.519 172.092C382.43 182.021 384.03 191.541 385.402 200.964C382.466 197.06 379.499 193.179 376.502 189.321L376.371 188.602C376.371 188.422 375.93 180.045 375.539 178.053C375.473 177.252 375.277 177.007 376.126 177.105C377.025 177.857 377.139 177.906 377.71 178.167C378.625 178.33 379.425 176.779 378.886 175.358L370.444 159.812C369.774 159.142 368.892 158.424 367.831 159.991C367.171 160.567 366.644 161.277 366.283 162.075C365.922 162.872 365.737 163.738 365.74 164.613C366.002 168.287 366.639 172.043 366.883 175.734L367.243 177.726C366.867 177.285 366.41 176.73 366.214 176.534C359.045 168.989 369.513 175.309 364.842 169.479C360.89 165.135 359.747 163.78 356.35 161.167C354.652 160.073 353.623 157.983 353.068 161.543C352.789 164.664 352.707 167.801 352.823 170.933C352.823 172.435 354.342 175.178 355.665 176.812ZM210.309 194.432C214.424 196.13 217.053 188.292 218.751 179.702C219.894 177.285 220.776 177.024 221.364 178.265C221.217 189.696 222.181 192.227 225.12 195.706C231.669 200.768 237.09 196.343 237.531 195.918L242.626 190.823C243.753 189.631 245.272 189.549 246.872 190.611C248.44 192.015 248.228 194.465 251.559 196.163C254.368 197.29 260.377 196.424 261.765 194.007C263.643 190.807 264.101 189.696 264.95 188.488C266.289 186.708 268.575 187.508 268.575 188.063C268.363 189.059 267.024 190.055 267.938 191.835C269.539 193.028 269.898 192.26 270.845 191.999C274.176 190.398 276.659 183.18 276.659 183.18C276.806 180.486 275.303 180.714 274.323 181.27C273.05 182.037 272.968 182.299 271.694 183.082C270.061 183.327 266.909 184.405 265.358 181.988C263.758 179.081 263.725 175.032 262.517 172.108C262.517 171.896 260.394 167.487 262.37 167.209C263.366 167.389 265.472 167.944 265.815 166.181C266.844 164.449 263.578 159.518 261.357 157.019C259.414 154.896 256.719 154.635 254.123 156.807C252.294 158.489 252.555 160.351 252.196 162.131C251.899 163.387 251.9 164.695 252.197 165.951C252.495 167.206 253.082 168.376 253.91 169.365C255.723 172.941 259.038 177.563 257.944 184.03C257.944 184.03 256.017 187.1 252.637 186.708C251.232 186.397 248.946 185.793 247.738 176.812C246.823 170.002 247.966 160.481 245.076 156.023C244.031 153.329 243.279 150.732 240.732 155.337C240.046 157.15 237.107 159.893 239.246 165.56C240.993 169.136 241.695 174.966 240.912 181.466C239.703 183.311 239.442 183.932 237.858 185.777C235.637 188.161 233.236 187.557 231.391 186.659C229.66 185.499 228.321 184.895 227.537 181.204C227.684 175.325 228.011 165.691 226.933 163.649C225.349 160.481 222.736 161.624 221.609 162.588C216.236 167.503 213.591 175.783 211.974 182.364C210.488 187.165 208.904 185.793 207.794 183.85C205.083 181.302 204.903 161.428 201.621 164.711C196.346 179.637 204.593 196.032 210.309 194.432Z" fill="white"/>
<path d="M288.384 226.505L286.816 225.606L256.099 225.46C254.515 224.855 254.988 224.333 256.099 223.908C263.431 222.912 276.479 220.789 277.344 208.264C277.197 201.748 274.536 197.469 266.534 196.294C260.671 196.751 256.474 202.45 257.144 208.705C256.866 210.403 257.699 213.702 255.984 214.077C244.7 215.106 232.403 222.161 231.995 227.223C231.309 227.697 229.774 226.325 229.97 224.169C229.427 214.949 226.773 205.976 222.213 197.943C218.653 194.383 219.764 195.559 217.38 197.241C215.844 199.004 215.567 200.213 215.649 203.724C215.649 203.855 218.523 211.873 220.956 217.49C222.573 223.255 224.091 229.836 222.997 236.058C219.209 244.288 211.582 251.67 204.234 255.671C200.445 256.895 197.195 256.454 196.395 255.605C194.06 254.038 194.174 251.147 194.354 251.098C200.543 246.771 207.63 243.292 213.183 231.649C214.816 227.207 215.306 224.512 213.689 217.637C213.24 215.215 212.126 212.964 210.472 211.138C211.468 210.485 214.326 212.657 214.767 211.366C213.939 207.603 212.065 204.15 209.361 201.405C207.157 199.396 204.756 199.168 202.731 201.013C200.445 202.287 199.955 206.827 201.049 210.811C202.258 213.816 205.54 214.322 207.892 220.348C207.892 220.479 208.741 224.855 207.532 226.57C206.569 229.575 194.076 239.389 193.39 239.83C193.047 240.255 193.194 239.618 193.145 237.985C193.064 235.993 193.946 231.289 193.701 231.257C189.634 233.886 188.279 241.937 187.544 244.321C177.256 251.425 165.612 256.716 158.884 263.934C155.373 269.404 183.021 257.647 186.238 256.226C186.956 256.748 186.875 259.214 188.801 261.419C191.676 265.305 197.75 267.706 203.711 266.22C213.673 262.611 219.437 255.818 225.283 248.289C226.116 247.064 227.423 246.134 228.631 247.065C232.648 256.063 244.259 262.431 259.234 263.101C262.712 258.871 261.03 256.83 259.626 255.948C259.626 255.818 252.228 253.009 251.102 250.2C250.416 247.652 252.081 245.415 255.413 243.717C265.031 242.557 274.487 241.267 283.648 238.328C283.746 235.258 285.526 230.653 286.751 228.66C287.926 226.635 288.563 227.24 288.384 226.505ZM263.121 207.366C263.578 206.598 265.097 206.631 266.517 207.464C267.938 208.28 268.738 209.586 268.265 210.354C267.807 211.138 266.272 211.089 264.852 210.256C263.431 209.439 262.663 208.149 263.121 207.366ZM250.759 238.393C247.46 239.52 244.292 240.402 244.292 245.17C245.517 251.8 242.61 249.53 240.895 248.616C238.87 247.162 233.171 243.651 232.354 236.074C232.224 234.262 233.644 232.743 235.914 232.743C239.327 233.674 244.373 233.739 248.75 234.196C252.326 234.425 254.106 237.234 250.759 238.393ZM136.985 164.825C140.513 166.523 147.176 165.805 146.882 160.089C146.882 159.583 146.751 157.885 146.702 157.427C145.983 155.745 144.024 156.154 143.567 157.901C143.42 158.473 143.812 159.387 143.305 159.681C143.011 159.975 141.885 159.795 141.934 158.228C141.934 157.721 141.558 157.183 141.346 156.872C141.117 156.725 140.986 156.676 140.578 156.676C140.088 156.693 140.088 156.823 139.827 157.248C139.713 157.656 139.549 158.081 139.549 158.554C139.484 159.109 139.272 159.305 138.863 159.403C138.406 159.403 138.504 159.452 138.145 159.207C137.916 158.963 137.639 158.865 137.639 158.456C137.637 157.979 137.56 157.505 137.41 157.052C137.214 156.791 136.904 156.676 136.545 156.578C134.618 156.578 134.487 158.783 134.601 159.632C134.422 159.779 134.356 163.731 136.985 164.825Z" fill="white"/>
<path d="M245.517 202.058C245.517 201.552 245.141 201.029 244.929 200.703C244.7 200.556 244.57 200.507 244.161 200.507C243.671 200.523 243.688 200.654 243.41 201.078C243.296 201.503 243.132 201.911 243.132 202.385C243.083 202.956 242.855 203.152 242.447 203.234C241.989 203.234 242.087 203.283 241.712 203.054C241.483 202.809 241.205 202.711 241.205 202.303C241.206 201.826 241.128 201.351 240.977 200.899C240.781 200.637 240.471 200.523 240.111 200.441C238.184 200.441 238.054 202.646 238.152 203.479C238.005 203.642 237.923 207.578 240.552 208.688C244.096 210.37 252.506 209.39 250.448 203.952C250.414 203.058 250.354 202.165 250.269 201.274C249.55 199.592 247.574 200.017 247.133 201.748C247.003 202.319 247.395 203.234 246.872 203.528C246.611 203.822 245.468 203.642 245.517 202.058ZM300.991 190.513C304.518 192.211 311.165 191.492 310.871 185.793C310.836 184.899 310.776 184.006 310.691 183.115C309.972 181.433 308.013 181.857 307.572 183.588C307.425 184.16 307.817 185.075 307.294 185.368C307 185.662 305.873 185.499 305.922 183.915C305.922 183.409 305.547 182.87 305.335 182.56C305.106 182.413 304.975 182.364 304.551 182.364C304.061 182.396 304.077 182.511 303.8 182.935C303.685 183.36 303.522 183.768 303.522 184.242C303.457 184.813 303.244 185.009 302.836 185.091C302.379 185.091 302.477 185.14 302.101 184.911C301.873 184.666 301.611 184.568 301.611 184.16C301.61 183.677 301.533 183.198 301.383 182.739C301.17 182.478 300.876 182.364 300.501 182.282C298.574 182.282 298.443 184.487 298.558 185.319C298.443 185.483 298.362 189.418 300.991 190.513ZM303.375 168.434C304.632 171.961 302.411 175.325 303.734 175.815C304.926 176.37 306.625 172.174 307.245 168.303C307.98 165.168 305.743 158.75 302.575 157.427C300.648 156.97 297.904 158.113 298.786 160.693C298.345 161.935 302.673 166.148 303.375 168.434ZM335.954 251.131C338.42 251.147 341.261 245.497 342.47 239.895C343.139 232.187 342.012 227.501 341.816 222.961C341.604 218.437 336.705 183.899 335.693 180.469C334.501 173.986 340.477 179.604 339.824 175.832C337.75 171.079 332.606 164.172 330.973 160.04C329.993 158.277 330.418 156.709 328.23 159.583C326.221 166.197 325.519 171.586 326.286 175.701C331.479 202.809 336.803 225.345 335.954 251.131ZM397.29 180.257C397.862 182.021 396.425 187.72 397.617 188.243C398.711 188.831 400.246 184.307 400.818 180.11C401.128 177.808 399.446 169.773 396.556 168.336C394.792 167.846 392.293 169.071 393.11 171.88C392.702 173.235 396.654 177.775 397.29 180.257ZM183.053 239.961C184.115 240.402 185.568 237.07 186.123 233.984C186.434 232.285 184.801 226.39 182.041 225.329C180.342 224.969 178.024 225.427 178.742 227.942C178.66 229.297 182.498 230.93 182.727 234.082C183.282 235.388 181.91 239.585 183.053 239.961ZM108.652 164.596C109.191 165.952 108.114 170.279 109.24 170.688C110.269 171.145 111.723 167.683 112.261 164.498C112.572 162.735 112.327 156.758 108.244 155.533C106.562 155.157 104.227 156.088 104.994 158.228C104.603 159.24 108.048 162.702 108.652 164.596ZM188.704 183.752C185.584 185.45 184.36 190.48 186.319 193.403C188.132 196 191.006 195.036 191.398 195.036C194.468 195.412 196.281 189.288 196.281 189.288C196.281 189.288 196.379 187.573 192.737 190.823C191.202 191.117 191.006 190.545 190.631 189.663C190.259 188.065 190.425 186.389 191.104 184.895C191.627 183.376 190.451 182.707 188.704 183.752ZM212.252 164.923C212.755 164.612 213.187 164.198 213.519 163.708C213.851 163.219 214.076 162.664 214.179 162.081C214.652 159.697 211.648 163.208 211.272 160.546C210.603 158.081 212.529 157.068 214.358 154.684C214.424 153.034 214.391 151.875 212.154 153.214C210.586 154.276 207.451 157.509 207.353 161.232C207.255 163.339 206.863 163.323 208.251 164.662C209.247 166.115 210.243 165.968 212.252 164.923ZM233.465 166.197C235.49 160.71 235.49 158.391 235.637 156.056C235.016 152.512 232.616 152.626 231.032 156.562C230.346 158.048 229.546 165.87 229.676 165.87C229.137 168.205 232.11 169.201 233.465 166.197ZM366.883 205.112C366.883 205.112 350.504 216.755 350.112 217.164C348.479 218.601 349.296 223.696 350.112 223.108C351.272 223.565 367.749 212.379 367.422 211.072C368.19 211.105 368.566 204.524 366.883 205.112ZM364.875 236.695C365.969 237.283 368.859 233.706 368.745 229.248C369.072 226.945 367.912 218.503 365.038 217.066C363.274 216.576 360.923 218.078 361.739 220.871C361.331 222.21 363.764 226.896 364.401 229.379C364.973 231.159 363.683 236.172 364.875 236.695ZM272.119 261.125C272.119 261.272 273.507 262.464 275.14 261.517C278.569 260.194 280.725 258.92 285.526 257.859C286.783 257.842 286.702 254.462 284.709 254.348C282.113 254.478 279.696 254.609 277.099 256.667C275.499 257.026 275.238 256.062 274.879 255.181C274.487 253.009 275.777 251.506 275.499 249.889C275.597 249.987 274.013 248.534 272.396 249.351C272.315 249.351 268.787 251.735 267.661 253.401C266.958 253.939 267.04 254.397 267.252 255.295C267.791 256.536 268.755 256.16 269.832 255.572C271.27 255.377 271.955 256.324 271.841 258.038C271.155 260.21 272.119 261.01 272.119 261.125ZM379.099 263.836C378.56 264.766 378.2 266.171 379.866 266.612C382.936 267.477 390.007 262.872 390.007 262.79C391.15 261.925 390.775 260.308 390.677 260.308C390.007 259.541 388.505 259.982 387.492 259.867C387.019 259.867 385.418 259.622 386.186 258.218C386.726 257.461 387.155 256.631 387.46 255.752C387.933 254.691 387.525 253.988 385.794 253.417C384.047 253.09 383.344 253.254 381.401 253.417C380.356 253.645 379.997 254.103 379.801 255.376C379.882 257.303 381.042 257.205 382.25 257.973C382.953 258.871 383.41 259.688 382.201 261.141C381.058 262.203 380.258 262.79 379.099 263.836Z" fill="white"/>
<path d="M145.49 306C145.49 324.5 160.49 339.5 178.89 339.5H279.09C279.09 346.873 282.019 353.944 287.232 359.158C292.446 364.371 299.517 367.3 306.89 367.3H340.29C347.663 367.3 354.734 364.371 359.947 359.158C365.161 353.944 368.09 346.873 368.09 339.5V306H145.49Z" fill="#EEEEEE"/>
</g>
</g>
<defs>
<clipPath id="clip0_209_2">
<rect width="512" height="512" fill="white"/>
</clipPath>
</defs>
</svg>
